<svg width="900" height="475" viewBox="0 0 900 475" fill="none" xmlns="http://www.w3.org/2000/svg">
<path d="M388.055 239.731L443.555 297.731C443.555 297.731 399.286 354.952 361.055 379.231C321.638 404.263 283.055 419.552 248.555 419.731C202.057 419.972 172.38 409.76 136.055 380.731C101.997 353.513 86.2583 329.365 75.0553 287.231C64.2563 246.615 65.8013 219.267 80.0553 179.731C102.078 118.648 139.59 85.6308 201.555 66.2308C241.071 53.8588 267.75 52.3248 307.555 63.7308C339.592 72.9108 381.555 106.231 381.555 106.231L573.495 297.731C573.495 297.731 591.555 314.731 603.555 321.731C615.556 328.731 642.055 348.731 684.055 335.731C702.976 329.875 738.055 305.231 744.555 273.731C750.447 245.18 751.61 229.216 735.055 195.731C723.182 171.714 693.078 151.271 669.555 146.731V214H609.555V151.731C588.713 159.851 564.055 183.231 564.055 183.231L515.055 230.731L456.055 172.231L527.055 104.731C527.055 104.731 547.205 87.5798 562.055 79.7308C577.999 71.3038 587.999 68.3528 605.555 64.2308C644.532 55.0808 681.555 61.2308 700.055 65.7308C718.555 70.2308 738.391 79.1388 759.055 94.2308C780.812 110.121 806.06 144.731 806.06 144.731C844.56 207.231 828.06 279.731 828.06 279.731C828.06 279.731 812.1 333.386 789.555 359.731C751.416 404.307 714.5 419.731 652.055 420.231C589.61 420.731 572.555 404.731 548.055 387.231C523.555 369.731 329.055 169.731 329.055 169.731C329.055 169.731 300.555 139.731 264.055 140.731C227.555 141.731 223.555 146.231 210.555 152.731C197.555 159.231 154.555 187.731 154.555 240.731C154.555 240.731 156.445 276.187 170.555 297.231C182.614 315.214 193.328 324.506 213.555 332.231C231.673 339.15 243.957 339.602 263.055 336.231C280.199 333.205 305.17 317.197 318.5 306C343.5 285 388.055 239.731 388.055 239.731Z" fill="url(#paint0_linear_44_3)"/>
<path d="M745.5 222C744.586 218.6 742.5 213.5 742.5 213.5H830C830.2 219.553 830.85 221.5 831 226C831.04 227.16 831.46 233.82 831.49 235C831.55 236.592 831.52 237.738 831.49 238.909V244.5H748.5L748 238.5L747 229.5C747 229.5 746.275 224.885 745.5 222Z" fill="url(#paint1_linear_44_3)" fill-opacity="0.5"/>
<path d="M609.5 214V152.5C609.5 152.5 588 162.5 571 178C554 193.5 515 231 515 231L455.5 172.5L490 140L538 95C538 95 570 68.5 609.5 63C649 57.5 653.101 57.678 669.5 59.5C683 61 682.383 61.156 700 65.5C736.5 74.5 761.5 95.5 761.5 95.5C761.5 95.5 764.5 95.5 796 131.5C827.5 167.5 829.75 213.5 829.75 213.5H742.798C742.798 213.5 737.5 199 732 190.5C722.206 175.364 715.5 170 699 159C688.634 152.089 669.569 146.686 669.569 146.686V214H609.5Z" fill="url(#paint2_linear_44_3)"/>
<path d="M444 298L388 239.5L318.5 306L379.5 365.5C379.5 365.5 388.493 358.056 394 353C401.527 346.09 405.464 341.909 412.5 334.5C425.466 320.847 444 298 444 298Z" fill="url(#paint3_linear_44_3)"/>
<path d="M379.5 365.5L318.5 306C318.5 306 310.743 311.821 305.5 315.5C299.824 319.483 290.5 325 290.5 325L351 385.5C351 385.5 359.935 380.308 365.5 376.5C371.065 372.692 379.5 365.5 379.5 365.5Z" fill="url(#paint4_linear_44_3)"/>
<path d="M444 298.5L388 240L367 260L427 318.5L444 298.5Z" fill="url(#paint5_linear_44_3)"/>
<defs>
<linearGradient id="paint0_linear_44_3" x1="449.785" y1="55.9998" x2="449.785" y2="420.242" gradientUnits="userSpaceOnUse">
<stop stop-color="#F89820"/>
<stop offset="1" stop-color="#925913"/>
</linearGradient>
<linearGradient id="paint1_linear_44_3" x1="787" y1="216.5" x2="787" y2="239" gradientUnits="userSpaceOnUse">
<stop stop-color="#2C1B06"/>
<stop offset="0.982" stop-color="#2C1B06" stop-opacity="0"/>
</linearGradient>
<linearGradient id="paint2_linear_44_3" x1="642.626" y1="58.356" x2="642.626" y2="231" gradientUnits="userSpaceOnUse">
<stop offset="0.412" stop-color="#5382A1"/>
<stop offset="1" stop-color="#1E303B"/>
</linearGradient>
<linearGradient id="paint3_linear_44_3" x1="381.25" y1="239.5" x2="381.25" y2="365.5" gradientUnits="userSpaceOnUse">
<stop stop-color="#5382A1"/>
<stop offset="1" stop-color="#1E303B"/>
</linearGradient>
<linearGradient id="paint4_linear_44_3" x1="349" y1="324.5" x2="307" y2="359" gradientUnits="userSpaceOnUse">
<stop offset="0.042" stop-color="#2C1B06"/>
<stop offset="0.845" stop-color="#925913" stop-opacity="0"/>
</linearGradient>
<linearGradient id="paint5_linear_44_3" x1="416" y1="267.5" x2="396" y2="288" gradientUnits="userSpaceOnUse">
<stop stop-color="#102530"/>
<stop offset="1" stop-color="#0D202B" stop-opacity="0"/>
</linearGradient>
</defs>
</svg>
